<svg width="40" height="38" viewBox="0 0 40 38" fill="none" xmlns="http://www.w3.org/2000/svg">
<path d="M8.33333 37.475C6.77083 37.475 5.22569 37.0931 3.69792 36.3292C2.17014 35.5653 0.9375 34.5583 0 33.3083C0.902778 33.3083 1.82292 32.9524 2.76042 32.2406C3.69792 31.5288 4.16667 30.4958 4.16667 29.1417C4.16667 27.4056 4.77431 25.9299 5.98958 24.7146C7.20486 23.4993 8.68056 22.8917 10.4167 22.8917C12.1528 22.8917 13.6285 23.4993 14.8437 24.7146C16.059 25.9299 16.6667 27.4056 16.6667 29.1417C16.6667 31.4333 15.8507 33.3951 14.2188 35.0271C12.5868 36.659 10.625 37.475 8.33333 37.475ZM8.33333 33.3083C9.47917 33.3083 10.4601 32.9003 11.276 32.0844C12.092 31.2684 12.5 30.2875 12.5 29.1417C12.5 28.5514 12.3003 28.0566 11.901 27.6573C11.5017 27.258 11.0069 27.0583 10.4167 27.0583C9.82639 27.0583 9.3316 27.258 8.93229 27.6573C8.53299 28.0566 8.33333 28.5514 8.33333 29.1417C8.33333 29.9403 8.23785 30.6694 8.04688 31.3292C7.8559 31.9889 7.60417 32.6139 7.29167 33.2042C7.46528 33.2736 7.63889 33.3083 7.8125 33.3083H8.33333ZM20.3125 24.975L14.5833 19.2458L33.2292 0.6C33.6111 0.218056 34.0885 0.0184028 34.6615 0.00104167C35.2344 -0.0163194 35.7292 0.183333 36.1458 0.6L38.9583 3.4125C39.375 3.82917 39.5833 4.31528 39.5833 4.87083C39.5833 5.42639 39.375 5.9125 38.9583 6.32917L20.3125 24.975Z" fill="#DC5634"/>
</svg>
