<svg width="60" height="61" viewBox="0 0 60 61" fill="none" xmlns="http://www.w3.org/2000/svg">
<path d="M30 0.241211C13.47 0.241211 0 13.7112 0 30.2412C0 46.7712 13.47 60.2412 30 60.2412C46.53 60.2412 60 46.7712 60 30.2412C60 13.7112 46.53 0.241211 30 0.241211ZM40.08 37.1412C40.95 38.0112 40.95 39.4512 40.08 40.3212C39.63 40.7712 39.06 40.9812 38.49 40.9812C37.92 40.9812 37.35 40.7712 36.9 40.3212L30 33.4212L23.1 40.3212C22.65 40.7712 22.08 40.9812 21.51 40.9812C20.94 40.9812 20.37 40.7712 19.92 40.3212C19.05 39.4512 19.05 38.0112 19.92 37.1412L26.82 30.2412L19.92 23.3412C19.05 22.4712 19.05 21.0312 19.92 20.1612C20.79 19.2912 22.23 19.2912 23.1 20.1612L30 27.0612L36.9 20.1612C37.77 19.2912 39.21 19.2912 40.08 20.1612C40.95 21.0312 40.95 22.4712 40.08 23.3412L33.18 30.2412L40.08 37.1412Z" fill="#08427A"/>
</svg>
