<svg width="50" height="50" viewBox="0 0 50 50" fill="none" xmlns="http://www.w3.org/2000/svg">
<g clip-path="url(#clip0_145_4088)">
<rect width="50" height="50" rx="15" fill="white"/>
<mask id="mask0_145_4088" style="mask-type:alpha" maskUnits="userSpaceOnUse" x="10" y="5" width="60" height="60">
<rect x="10" y="5" width="60" height="60" fill="#1E1E1E"/>
</mask>
<g mask="url(#mask0_145_4088)">
<path d="M12.4426 39.824C11.5939 39.824 10.8673 39.4692 10.2628 38.7597C9.65841 38.0502 9.3562 37.1972 9.3562 36.2008V14.4617C9.3562 13.4653 9.65841 12.6124 10.2628 11.9028C10.8673 11.1933 11.5939 10.8385 12.4426 10.8385H37.134C37.9827 10.8385 38.7093 11.1933 39.3138 11.9028C39.9182 12.6124 40.2204 13.4653 40.2204 14.4617V36.2008C40.2204 37.1972 39.9182 38.0502 39.3138 38.7597C38.7093 39.4692 37.9827 39.824 37.134 39.824H12.4426ZM24.7883 27.1429L12.4426 18.0849V36.2008H37.134V18.0849L24.7883 27.1429ZM24.7883 23.5197L37.134 14.4617H12.4426L24.7883 23.5197ZM12.4426 18.0849V14.4617V36.2008V18.0849Z" fill="#1E1E1E"/>
</g>
</g>
<defs>
<clipPath id="clip0_145_4088">
<rect width="50" height="50" rx="15" fill="white"/>
</clipPath>
</defs>
</svg>
