<svg width="43" height="42" viewBox="0 0 43 42" fill="none" xmlns="http://www.w3.org/2000/svg">
<g clip-path="url(#clip0_145_4088)">
<rect x="0.842163" width="41.3158" height="41.3158" rx="12.3947" fill="white" fill-opacity="0.8"/>
<mask id="mask0_145_4088" style="mask-type:alpha" maskUnits="userSpaceOnUse" x="9" y="4" width="50" height="50">
<rect x="9.10522" y="4.13158" width="49.5789" height="49.5789" fill="#1E1E1E"/>
</mask>
<g mask="url(#mask0_145_4088)">
<path d="M11.5 31C10.8125 31 10.224 30.7552 9.73438 30.2656C9.24479 29.776 9 29.1875 9 28.5V13.5C9 12.8125 9.24479 12.224 9.73438 11.7344C10.224 11.2448 10.8125 11 11.5 11H31.5C32.1875 11 32.776 11.2448 33.2656 11.7344C33.7552 12.224 34 12.8125 34 13.5V28.5C34 29.1875 33.7552 29.776 33.2656 30.2656C32.776 30.7552 32.1875 31 31.5 31H11.5ZM21.5 22.25L11.5 16V28.5H31.5V16L21.5 22.25ZM21.5 19.75L31.5 13.5H11.5L21.5 19.75ZM11.5 16V13.5V28.5V16Z" fill="#1E1E1E"/>
</g>
</g>
<defs>
<clipPath id="clip0_145_4088">
<rect x="0.842163" width="41.3158" height="41.3158" rx="12.3947" fill="white"/>
</clipPath>
</defs>
</svg>
