<svg width="134" height="149" viewBox="0 0 134 149" fill="none" xmlns="http://www.w3.org/2000/svg">
<path fill-rule="evenodd" clip-rule="evenodd" d="M52.3372 0.123854C52.0902 0.554854 51.5852 2.58886 51.2152 4.64286C49.9012 11.9239 54.1402 20.5539 60.6952 23.9439C63.8102 25.5549 68.2142 25.8839 69.0282 24.5659C69.5782 23.6769 64.8142 18.8369 60.6532 16.0589C57.2682 13.7979 58.8722 13.9819 63.6082 16.3989C68.1382 18.7099 72.6262 24.1289 72.6262 27.2879C72.6262 29.1439 72.3302 29.3199 70.6922 28.4429C66.3222 26.1049 54.6612 27.8329 49.3532 31.6059C46.2932 33.7809 43.2432 39.1849 42.3102 44.0819C40.7942 52.0489 45.5972 65.6858 52.8032 73.8708L56.7612 78.3689L34.9442 78.6379L13.1262 78.9079V81.4079V83.9079L67.2232 84.4079C113.327 84.8339 121.587 85.1299 123.127 86.4079C124.74 87.7459 119.236 87.9619 72.0302 88.4079C37.7612 88.7319 19.1262 89.2599 19.1262 89.9079C19.1262 90.5559 38.1222 91.0839 73.1132 91.4079C123.504 91.8749 127.121 92.0249 127.436 93.6579C127.753 95.3069 124.659 95.4079 73.6992 95.4079C26.4412 95.4079 19.6262 95.5958 19.6262 96.8988C19.6262 98.1988 26.5202 98.4238 73.3762 98.6488C126.373 98.9038 127.126 98.9359 127.126 100.908C127.126 102.88 126.373 102.912 73.2962 103.167C30.9692 103.37 19.5542 103.691 19.8792 104.667C20.1982 105.625 32.2232 106.022 72.7092 106.408C119.885 106.858 124.876 107.058 122.626 108.408C120.513 109.676 111.599 109.985 65.0472 110.408L9.96823 110.908L6.31023 113.699C1.54323 117.336 0.339233 119.753 0.0322328 126.306C-0.220767 131.693 1.01623 134.408 3.72123 134.408C4.40223 134.408 4.68123 134.687 4.34023 135.027C4.00023 135.368 4.34723 136.271 5.11123 137.036C6.26923 138.194 15.4582 138.382 60.3132 138.167C95.5622 137.997 114.039 137.563 113.873 136.908C113.708 136.257 94.7852 135.908 59.6232 135.908H5.62623V133.167V130.425L59.6262 130.167C94.9982 129.997 113.54 129.563 113.376 128.908C113.213 128.255 94.4582 127.942 59.3762 128.006L5.62623 128.104V125.765V123.425L59.6262 123.167C94.5762 122.999 113.715 122.555 113.876 121.908C114.039 121.255 95.5442 120.734 60.6262 120.408C12.4872 119.958 7.37723 119.758 9.62623 118.408C11.7402 117.139 20.7192 116.831 67.8042 116.408C122.077 115.921 123.551 115.856 126.242 113.846C132.09 109.478 133.126 107.005 133.126 97.4079C133.126 87.8119 132.091 85.3408 126.245 80.9698C123.758 79.1108 121.813 78.8769 106.5 78.5909L89.5142 78.2748L93.1822 74.2149C100.681 65.9129 105.057 51.8479 103.207 41.9859C102.446 37.9319 97.7582 32.0449 93.5642 29.8759C89.6432 27.8479 80.3952 26.9439 76.7122 28.2279C75.0142 28.8199 73.6262 28.9769 73.6262 28.5779C73.6262 27.2679 76.8432 22.9869 81.3682 18.2759C84.0612 15.4739 85.3932 13.3819 84.7432 12.9799C83.0442 11.9299 79.8192 14.1599 76.5932 18.6119L73.6222 22.7129L74.2222 18.3099C74.9962 12.6179 72.3192 8.91585 66.3222 7.38485C59.4792 5.63885 56.6682 4.27685 54.6722 1.73885C53.6342 0.419854 52.5842 -0.306146 52.3372 0.123854ZM18.3512 143.15C12.4242 143.457 11.7582 143.683 13.0292 144.954C13.8292 145.754 14.9922 146.408 15.6142 146.408C16.2352 146.408 16.4632 146.862 16.1202 147.417C15.7032 148.092 32.8152 148.34 67.8112 148.167L120.126 147.908L120.442 145.158L120.759 142.408L72.9422 142.604C46.6432 142.712 22.0772 142.957 18.3512 143.15Z" fill="#DC5634"/>
</svg>
