<svg width="60" height="57" viewBox="0 0 60 57" fill="none" xmlns="http://www.w3.org/2000/svg">
<path d="M30 0.71875C13.47 0.71875 0 13.1835 0 28.4799C0 43.7764 13.47 56.2411 30 56.2411C46.53 56.2411 60 43.7764 60 28.4799C60 13.1835 46.53 0.71875 30 0.71875ZM42 30.562H32.25V39.5844C32.25 40.7226 31.23 41.6665 30 41.6665C28.77 41.6665 27.75 40.7226 27.75 39.5844V30.562H18C16.77 30.562 15.75 29.6182 15.75 28.4799C15.75 27.3417 16.77 26.3979 18 26.3979H27.75V17.3755C27.75 16.2373 28.77 15.2934 30 15.2934C31.23 15.2934 32.25 16.2373 32.25 17.3755V26.3979H42C43.23 26.3979 44.25 27.3417 44.25 28.4799C44.25 29.6182 43.23 30.562 42 30.562Z" fill="#08427A"/>
</svg>
