<svg width="60" height="57" viewBox="0 0 60 57" fill="none" xmlns="http://www.w3.org/2000/svg">
<path d="M12.6316 56.8042C10.2632 56.8042 7.92105 56.2253 5.60526 55.0674C3.28947 53.9095 1.42105 52.3832 0 50.4884C1.36842 50.4884 2.76316 49.949 4.18421 48.87C5.60526 47.7911 6.31579 46.2253 6.31579 44.1726C6.31579 41.5411 7.23684 39.3042 9.07895 37.4621C10.9211 35.62 13.1579 34.6989 15.7895 34.6989C18.4211 34.6989 20.6579 35.62 22.5 37.4621C24.3421 39.3042 25.2632 41.5411 25.2632 44.1726C25.2632 47.6463 24.0263 50.62 21.5526 53.0937C19.0789 55.5674 16.1053 56.8042 12.6316 56.8042ZM12.6316 50.4884C14.3684 50.4884 15.8553 49.87 17.0921 48.6332C18.3289 47.3963 18.9474 45.9095 18.9474 44.1726C18.9474 43.2779 18.6447 42.5279 18.0395 41.9226C17.4342 41.3174 16.6842 41.0147 15.7895 41.0147C14.8947 41.0147 14.1447 41.3174 13.5395 41.9226C12.9342 42.5279 12.6316 43.2779 12.6316 44.1726C12.6316 45.3832 12.4868 46.4884 12.1974 47.4884C11.9079 48.4884 11.5263 49.4358 11.0526 50.3305C11.3158 50.4358 11.5789 50.4884 11.8421 50.4884H12.6316ZM30.7895 37.8568L22.1053 29.1726L50.3684 0.909474C50.9474 0.330526 51.6711 0.0278947 52.5395 0.00157895C53.4079 -0.0247368 54.1579 0.277895 54.7895 0.909474L59.0526 5.17263C59.6842 5.80421 60 6.54105 60 7.38316C60 8.22526 59.6842 8.9621 59.0526 9.59368L30.7895 37.8568Z" fill="#08427A"/>
</svg>
