<svg width="50" height="50" viewBox="0 0 50 50" fill="none" xmlns="http://www.w3.org/2000/svg">
<g clip-path="url(#clip0_145_4092)">
<rect width="50" height="50" rx="15" fill="white"/>
<mask id="mask0_145_4092" style="mask-type:alpha" maskUnits="userSpaceOnUse" x="5" y="2" width="60" height="60">
<rect x="5" y="2" width="60" height="60" fill="#D9D9D9"/>
</mask>
<g mask="url(#mask0_145_4092)">
<path d="M38.1076 43.9516C34.375 43.9516 30.7364 42.9856 27.1918 41.0534C23.6473 39.1213 20.5078 36.5675 17.7734 33.3921C15.039 30.2167 12.84 26.5709 11.1762 22.4546C9.51243 18.3384 8.68054 14.1129 8.68054 9.77823C8.68054 9.17339 8.85415 8.66935 9.20138 8.26613C9.5486 7.8629 9.98263 7.66129 10.5035 7.66129H17.5347C17.9398 7.66129 18.3015 7.8125 18.6198 8.11492C18.9381 8.41734 19.1261 8.80376 19.184 9.27419L20.3125 16.3306C20.3704 16.8011 20.3631 17.2295 20.2908 17.6159C20.2184 18.0024 20.0521 18.3468 19.7917 18.6492L15.5816 23.5887C16.7969 26.0081 18.3232 28.2762 20.1606 30.3931C21.998 32.5101 24.0162 34.3414 26.2153 35.8871L30.2951 31.1492C30.5555 30.8468 30.8955 30.62 31.3151 30.4687C31.7347 30.3175 32.147 30.2755 32.5521 30.3427L38.5417 31.754C38.9467 31.8548 39.2795 32.0817 39.5399 32.4345C39.8003 32.7873 39.9305 33.1989 39.9305 33.6694V41.8347C39.9305 42.4395 39.7569 42.9436 39.4097 43.3468C39.0625 43.75 38.6285 43.9516 38.1076 43.9516ZM13.9323 19.7581L16.7969 16.4315L16.059 11.6935H12.1962C12.3408 13.0712 12.5434 14.4321 12.8038 15.7762C13.0642 17.1203 13.4404 18.4476 13.9323 19.7581ZM29.4705 37.8024C30.5989 38.3737 31.7491 38.8273 32.921 39.1633C34.0929 39.4993 35.272 39.7177 36.4583 39.8185V35.3831L32.3785 34.4254L29.4705 37.8024Z" fill="#1E1E1E"/>
</g>
</g>
<defs>
<clipPath id="clip0_145_4092">
<rect width="50" height="50" rx="15" fill="white"/>
</clipPath>
</defs>
</svg>
