<svg width="42" height="42" viewBox="0 0 42 42" fill="none" xmlns="http://www.w3.org/2000/svg">
<g clip-path="url(#clip0_145_4092)">
<rect width="41.3158" height="41.3158" rx="12.3947" fill="white" fill-opacity="0.8"/>
<mask id="mask0_145_4092" style="mask-type:alpha" maskUnits="userSpaceOnUse" x="4" y="1" width="50" height="51">
<rect x="4.13159" y="1.65263" width="49.5789" height="49.5789" fill="#D9D9D9"/>
</mask>
<g mask="url(#mask0_145_4092)">
<path d="M29.8333 32.2258C27.4444 32.2258 25.1157 31.6075 22.8472 30.371C20.5787 29.1344 18.5694 27.5 16.8194 25.4677C15.0694 23.4355 13.662 21.1022 12.5972 18.4677C11.5324 15.8333 11 13.129 11 10.3548C11 9.96774 11.1111 9.64516 11.3333 9.3871C11.5556 9.12903 11.8333 9 12.1667 9H16.6667C16.9259 9 17.1574 9.09677 17.3611 9.29032C17.5648 9.48387 17.6852 9.73118 17.7222 10.0323L18.4444 14.5484C18.4815 14.8495 18.4769 15.1237 18.4306 15.371C18.3843 15.6183 18.2778 15.8387 18.1111 16.0323L15.4167 19.1935C16.1944 20.7419 17.1713 22.1935 18.3472 23.5484C19.5231 24.9032 20.8148 26.0753 22.2222 27.0645L24.8333 24.0323C25 23.8387 25.2176 23.6935 25.4861 23.5968C25.7546 23.5 26.0185 23.4731 26.2778 23.5161L30.1111 24.4194C30.3704 24.4839 30.5833 24.629 30.75 24.8548C30.9167 25.0806 31 25.3441 31 25.6452V30.871C31 31.2581 30.8889 31.5806 30.6667 31.8387C30.4444 32.0968 30.1667 32.2258 29.8333 32.2258ZM14.3611 16.7419L16.1944 14.6129L15.7222 11.5806H13.25C13.3426 12.4624 13.4722 13.3333 13.6389 14.1935C13.8056 15.0538 14.0463 15.9032 14.3611 16.7419ZM24.3056 28.2903C25.0278 28.6559 25.7639 28.9462 26.5139 29.1613C27.2639 29.3763 28.0185 29.5161 28.7778 29.5806V26.7419L26.1667 26.129L24.3056 28.2903Z" fill="#1E1E1E"/>
</g>
</g>
<defs>
<clipPath id="clip0_145_4092">
<rect width="41.3158" height="41.3158" rx="12.3947" fill="white"/>
</clipPath>
</defs>
</svg>
