<svg width="60" height="62" viewBox="0 0 60 62" fill="none" xmlns="http://www.w3.org/2000/svg">
<path d="M60 30.8594C60 13.8559 46.53 0 30 0C13.47 0 0 13.8559 0 30.8594C0 39.8086 3.75 47.8629 9.69 53.5102C9.69 53.5411 9.69 53.5411 9.66 53.5719C9.96 53.8805 10.32 54.1274 10.62 54.4051C10.8 54.5594 10.95 54.7137 11.13 54.8372C11.67 55.3 12.27 55.7321 12.84 56.1641C13.05 56.3184 13.23 56.4418 13.44 56.5961C14.01 56.9973 14.61 57.3676 15.24 57.7071C15.45 57.8305 15.69 57.9848 15.9 58.1082C16.5 58.4477 17.13 58.7563 17.79 59.034C18.03 59.1575 18.27 59.2809 18.51 59.3735C19.17 59.6512 19.83 59.8981 20.49 60.1141C20.73 60.2067 20.97 60.2993 21.21 60.361C21.93 60.577 22.65 60.7622 23.37 60.9473C23.58 61.009 23.79 61.0707 24.03 61.1016C24.87 61.2868 25.71 61.4102 26.58 61.5028C26.7 61.5028 26.82 61.5336 26.94 61.5645C27.96 61.6571 28.98 61.7188 30 61.7188C31.02 61.7188 32.04 61.6571 33.03 61.5645C33.15 61.5645 33.27 61.5336 33.39 61.5028C34.26 61.4102 35.1 61.2868 35.94 61.1016C36.15 61.0707 36.36 60.9782 36.6 60.9473C37.32 60.7622 38.07 60.6079 38.76 60.361C39 60.2684 39.24 60.1758 39.48 60.1141C40.14 59.8672 40.83 59.6512 41.46 59.3735C41.7 59.2809 41.94 59.1575 42.18 59.034C42.81 58.7563 43.44 58.4477 44.07 58.1082C44.31 57.9848 44.52 57.8305 44.73 57.7071C45.33 57.3368 45.93 56.9973 46.53 56.5961C46.74 56.4727 46.92 56.3184 47.13 56.1641C47.73 55.7321 48.3 55.3 48.84 54.8372C49.02 54.6829 49.17 54.5286 49.35 54.4051C49.68 54.1274 50.01 53.8497 50.31 53.5719C50.31 53.5411 50.31 53.5411 50.28 53.5102C56.25 47.8629 60 39.8086 60 30.8594ZM44.82 46.1965C36.69 40.5801 23.37 40.5801 15.18 46.1965C13.86 47.0914 12.78 48.1407 11.88 49.2825C7.32 44.5301 4.5 38.0188 4.5 30.8594C4.5 16.3863 15.93 4.62891 30 4.62891C44.07 4.62891 55.5 16.3863 55.5 30.8594C55.5 38.0188 52.68 44.5301 48.12 49.2825C47.25 48.1407 46.14 47.0914 44.82 46.1965Z" fill="#08427A"/>
<path d="M30 15.2126C23.79 15.2126 18.75 20.397 18.75 26.785C18.75 33.0494 23.52 38.1412 29.85 38.3264H30.12H30.33H30.39C36.45 38.1104 41.22 33.0494 41.25 26.785C41.25 20.397 36.21 15.2126 30 15.2126Z" fill="#08427A"/>
</svg>
