<svg width="25" height="26" viewBox="0 0 25 26" fill="none" xmlns="http://www.w3.org/2000/svg">
<mask id="mask0_145_3280" style="mask-type:alpha" maskUnits="userSpaceOnUse" x="0" y="0" width="25" height="26">
<rect width="25" height="26" fill="#D9D9D9"/>
</mask>
<g mask="url(#mask0_145_3280)">
<path d="M20.4167 22.75L13.8542 15.925C13.3333 16.3583 12.7344 16.7014 12.0573 16.9542C11.3802 17.2069 10.6597 17.3333 9.89583 17.3333C8.00347 17.3333 6.40191 16.6517 5.09115 15.2885C3.78038 13.9253 3.125 12.2597 3.125 10.2917C3.125 8.32361 3.78038 6.65799 5.09115 5.29479C6.40191 3.9316 8.00347 3.25 9.89583 3.25C11.7882 3.25 13.3898 3.9316 14.7005 5.29479C16.0113 6.65799 16.6667 8.32361 16.6667 10.2917C16.6667 11.0861 16.5451 11.8354 16.3021 12.5396C16.059 13.2438 15.7292 13.8667 15.3125 14.4083L21.875 21.2333L20.4167 22.75ZM9.89583 15.1667C11.1979 15.1667 12.3047 14.6927 13.2161 13.7448C14.1276 12.7969 14.5833 11.6458 14.5833 10.2917C14.5833 8.9375 14.1276 7.78646 13.2161 6.83854C12.3047 5.89063 11.1979 5.41667 9.89583 5.41667C8.59375 5.41667 7.48698 5.89063 6.57552 6.83854C5.66406 7.78646 5.20833 8.9375 5.20833 10.2917C5.20833 11.6458 5.66406 12.7969 6.57552 13.7448C7.48698 14.6927 8.59375 15.1667 9.89583 15.1667Z" fill="#1C1B1F"/>
</g>
</svg>
